<svg xmlns="http://www.w3.org/2000/svg" xmlns:xlink="http://www.w3.org/1999/xlink" viewBox="0 0 930.13 930.13"><defs><style>.cls-1{fill:url(#gradient_206);}.cls-2{fill:url(#gradient_117);}</style><linearGradient id="gradient_206" x1="480" y1="945.06" x2="480" y2="14.94" gradientUnits="userSpaceOnUse"><stop offset="0" stop-color="#85a96a"/><stop offset="1" stop-color="#abcc5e"/></linearGradient><linearGradient id="gradient_117" x1="450.17" y1="837.24" x2="450.17" y2="114.4" gradientUnits="userSpaceOnUse"><stop offset="0" stop-color="#c8c6c6"/><stop offset="1" stop-color="#ececec"/></linearGradient></defs><title>confirm_noborder</title><g id="Calque_3" data-name="Calque 3"><path class="cls-1" d="M480,14.94c-256.85,0-465,208.2-465,465.05S223.14,945.06,480,945.06,945.06,736.86,945.06,480,736.86,14.94,480,14.94Z" transform="translate(-14.94 -14.94)"/><path class="cls-2" d="M639.18,825.43a.44.44,0,0,1,0,.15A14.77,14.77,0,0,1,624.79,837c-17.1,6.23-129.6-99.06-171-132.52-39.56-32-164.07-128-181.33-174.64A128.74,128.74,0,0,1,278,411.1c.42-.72.86-1.47,1.34-2.24.29-.43.57-.87.86-1.33s.44-.69.65-1c1.22-1.91,2.49-3.8,3.8-5.64q1.56-2.18,3.22-4.28c.53-.71,1.09-1.39,1.66-2.08,1.13-1.4,2.28-2.74,3.46-4.08,42.12-51.05,140.1-140,170.22-171.44C493,187.92,548.4,133.16,575.09,118.24a33.53,33.53,0,0,1,8.69-3.65,17.61,17.61,0,0,1,2.63-.19,18.5,18.5,0,0,1,18.51,18.51c0,.3,0,.63,0,1-.8,27-62.5,106.47-115.63,167.66-17.46,20.09-33.46,39.06-47.55,56.71-25.66,32-45.13,59.61-55.85,81.56a80.78,80.78,0,0,0-4.19,9.35,87.27,87.27,0,0,0,18.91,91.47l.13.15c11.46,12.56,28.11,29.71,47.4,49.48C526.8,670.9,649.13,794.78,639.18,825.43Z" transform="translate(-14.94 -14.94)"/></g></svg>