<?xml version="1.0" encoding="UTF-8" standalone="no"?>
<!-- Created with Inkscape (http://www.inkscape.org/) -->

<svg
   xmlns:dc="http://purl.org/dc/elements/1.1/"
   xmlns:cc="http://creativecommons.org/ns#"
   xmlns:rdf="http://www.w3.org/1999/02/22-rdf-syntax-ns#"
   xmlns:svg="http://www.w3.org/2000/svg"
   xmlns="http://www.w3.org/2000/svg"
   xmlns:sodipodi="http://sodipodi.sourceforge.net/DTD/sodipodi-0.dtd"
   xmlns:inkscape="http://www.inkscape.org/namespaces/inkscape"
   width="210mm"
   height="297mm"
   viewBox="0 0 744.09448819 1052.3622047"
   id="svg2"
   version="1.1"
   inkscape:version="0.91 r13725"
   sodipodi:docname="icon.svg">
  <defs
     id="defs4" />
  <sodipodi:namedview
     id="base"
     pagecolor="#ffffff"
     bordercolor="#666666"
     borderopacity="1.0"
     inkscape:pageopacity="0.0"
     inkscape:pageshadow="2"
     inkscape:zoom="0.49497475"
     inkscape:cx="413.98904"
     inkscape:cy="215.58706"
     inkscape:document-units="px"
     inkscape:current-layer="layer1"
     showgrid="false"
     inkscape:window-width="960"
     inkscape:window-height="1028"
     inkscape:window-x="0"
     inkscape:window-y="24"
     inkscape:window-maximized="0" />
  <metadata
     id="metadata7">
    <rdf:RDF>
      <cc:Work
         rdf:about="">
        <dc:format>image/svg+xml</dc:format>
        <dc:type
           rdf:resource="http://purl.org/dc/dcmitype/StillImage" />
        <dc:title />
      </cc:Work>
    </rdf:RDF>
  </metadata>
  <g
     inkscape:label="Layer 1"
     inkscape:groupmode="layer"
     id="layer1">
    <g
       id="g3358"
       transform="matrix(4.4539327,0,0,4.4539327,-1034.1634,-1869.541)">
      <path
         style="fill:#fefefe"
         d="m 234.0504,530.61464 0,-81.01265 81.01265,0 81.01266,0 0,81.01265 0,81.01266 -81.01266,0 -81.01265,0 0,-81.01266 z"
         id="path3450"
         inkscape:connector-curvature="0" />
      <path
         style="fill:#f9f9f9"
         d="m 289.7466,609.81341 c -24.82895,-6.91977 -47.21928,-29.76208 -53.70423,-54.78831 -2.47844,-9.56464 -2.61357,-37.26874 -0.23019,-47.19526 6.02863,-25.10864 30.20813,-49.94362 54.75005,-56.23426 9.96859,-2.55518 40.08241,-2.70189 49.32676,-0.24032 24.08905,6.41438 48.25826,29.97043 54.39256,53.01262 1.15657,4.34439 1.76929,13.63853 1.77913,26.98707 0.0127,17.19191 -0.39207,21.60067 -2.60087,28.32899 -7.36475,22.43412 -30.12916,44.28542 -52.2808,50.1837 -8.32904,2.21777 -43.41295,2.18077 -51.43241,-0.0542 z"
         id="path3448"
         inkscape:connector-curvature="0" />
      <path
         style="fill:#f4f5f5"
         d="m 295.4428,608.88881 c -9.42394,-1.77121 -25.62415,-10.14189 -33.78738,-17.45804 -8.82493,-7.90919 -17.67174,-20.95643 -21.99151,-32.43299 -3.08786,-8.20369 -3.22097,-9.61721 -2.84421,-30.20366 l 0.39526,-21.5972 5.55549,-11.3924 c 7.83169,-16.06009 21.70963,-29.98957 37.36079,-37.49952 9.40991,-4.51519 12.89819,-5.48101 23.63373,-6.5436 29.64951,-2.93467 50.29089,3.63212 68.37959,21.75407 10.73409,10.75382 19.06969,25.53754 21.48888,38.11183 2.03959,10.60125 1.6874,32.35424 -0.66417,41.02253 -5.68012,20.93784 -21.90824,40.57417 -41.25679,49.92143 -5.95042,2.87464 -13.86044,5.80343 -17.57784,6.50842 -8.18754,1.55273 -29.98683,1.44519 -38.69184,-0.19087 z"
         id="path3446"
         inkscape:connector-curvature="0" />
      <path
         style="fill:#eef0f2"
         d="m 290.17422,606.65182 c -12.57644,-4.52773 -22.54735,-10.73853 -31.57786,-19.66958 -7.25243,-7.17256 -10.19966,-11.35527 -15.18987,-21.55747 l -6.19153,-12.65823 0,-22.1519 0,-22.15189 6.19153,-12.65823 c 8.63246,-17.64857 19.19787,-28.21398 36.84644,-36.84644 l 12.65823,-6.19153 22.15189,0 22.1519,0 12.65823,6.19153 c 19.89872,9.73308 34.25776,25.70585 41.17013,45.79698 2.05034,5.95941 2.50075,10.64237 2.50075,26.00017 0,16.44381 -0.36,19.72337 -2.94751,26.85192 -4.10998,11.32285 -9.00104,19.24877 -17.21703,27.90005 -9.13581,9.61983 -16.10635,14.35996 -28.56963,19.42801 -9.88405,4.01923 -10.58132,4.11727 -29.11392,4.09348 -15.27294,-0.0196 -20.26564,-0.48458 -25.52175,-2.37687 z"
         id="path3444"
         inkscape:connector-curvature="0" />
      <path
         style="fill:#ecedf0"
         d="m 289.43861,606.02964 c -12.17558,-4.29721 -19.32726,-8.81026 -29.43884,-18.57731 -10.12396,-9.77899 -15.91788,-18.64733 -20.30488,-31.07921 -2.65616,-7.52702 -3.05945,-10.92246 -3.05945,-25.75848 0,-19.15662 2.18939,-27.93723 10.31123,-41.35359 5.04596,-8.33533 19.62509,-22.71139 27.93498,-27.54586 12.84867,-7.47501 21.50704,-9.52816 40.1814,-9.52816 19.1154,0 27.95335,2.19464 41.22189,10.23622 14.94897,9.06003 29.78583,27.81553 34.77345,43.95764 3.5208,11.39486 3.5208,37.07265 0,48.46751 -4.98762,16.14211 -19.82448,34.89761 -34.77345,43.95763 -13.26854,8.04159 -22.10649,10.23623 -41.22189,10.23623 -14.7631,0 -18.2502,-0.40997 -25.62444,-3.01262 z"
         id="path3442"
         inkscape:connector-curvature="0" />
      <path
         style="fill:#e1e4ea"
         d="m 294.23688,607.14944 c -21.19001,-5.81309 -40.50259,-21.74278 -49.81817,-41.09176 -6.59455,-13.69725 -7.77478,-19.07759 -7.77478,-35.44304 0,-16.36544 1.18023,-21.74578 7.77478,-35.44303 7.24432,-15.04686 20.15445,-27.95699 35.20131,-35.20131 13.69725,-6.59455 19.07759,-7.77478 35.44303,-7.77478 16.36545,0 21.74579,1.18023 35.44304,7.77478 15.10129,7.27053 27.98781,20.17597 35.1497,35.20131 6.19452,12.99583 7.88827,20.60611 7.88827,35.44303 0,14.83693 -1.69375,22.44721 -7.88827,35.44304 -7.18766,15.07942 -20.07028,27.96204 -35.1497,35.1497 -5.91772,2.82071 -13.77803,5.74949 -17.46737,6.50841 -9.0804,1.86792 -31.09998,1.54651 -38.80184,-0.56635 z"
         id="path3440"
         inkscape:connector-curvature="0" />
      <path
         style="fill:#e1e1e1"
         d="m 296.35038,607.26111 c -21.17426,-5.127 -42.89879,-22.92113 -52.05104,-42.63396 -5.90655,-12.72196 -7.71729,-20.70249 -7.71729,-34.01251 0,-13.76551 1.82861,-21.51073 8.21853,-34.81012 4.53222,-9.43295 7.21512,-13.08436 15.59855,-21.22952 15.79495,-15.34605 33.07811,-22.44136 54.66392,-22.44136 13.55071,0 21.4497,1.8223 34.17722,7.88472 15.19696,7.23867 29.1804,21.22211 36.41907,36.41907 6.10804,12.82329 7.88472,20.62127 7.88472,34.60648 0,21.32939 -7.48506,38.9262 -23.29926,54.77473 -8.23138,8.24927 -12.3598,11.27461 -21.00453,15.39229 -5.91772,2.81875 -13.77804,5.74594 -17.46737,6.50486 -8.81338,1.81298 -27.02251,1.57926 -35.42252,-0.45468 z"
         id="path3438"
         inkscape:connector-curvature="0" />
      <path
         style="fill:#dee0e2"
         d="m 296.35038,607.26111 c -21.17426,-5.127 -42.89879,-22.92113 -52.05104,-42.63396 -5.90655,-12.72196 -7.71729,-20.70249 -7.71729,-34.01251 0,-13.76551 1.82861,-21.51073 8.21853,-34.81012 4.53222,-9.43295 7.21512,-13.08436 15.59855,-21.22952 15.79495,-15.34605 33.07811,-22.44136 54.66392,-22.44136 13.55071,0 21.4497,1.8223 34.17722,7.88472 15.19696,7.23867 29.1804,21.22211 36.41907,36.41907 6.10804,12.82329 7.88472,20.62127 7.88472,34.60648 0,21.32939 -7.48506,38.9262 -23.29926,54.77473 -8.23138,8.24927 -12.3598,11.27461 -21.00453,15.39229 -5.91772,2.81875 -13.77804,5.74594 -17.46737,6.50486 -8.81338,1.81298 -27.02251,1.57926 -35.42252,-0.45468 z M 359.27012,564.914 c 4.85798,-6.13372 8.21829,-13.69535 10.2814,-23.13604 2.79086,-12.77092 -2.2024,-29.17347 -12.27505,-40.32269 -2.49333,-2.75981 -5.00689,-5.01784 -5.5857,-5.01784 -0.57881,0 -1.22455,2.98517 -1.43498,6.63371 -0.49521,8.58595 -2.27108,8.93967 -13.98312,2.78516 -10.07705,-5.29534 -22.34739,-7.11327 -30.299,-4.48901 -10.38696,3.42801 -17.36397,17.8661 -15.82749,32.75313 1.29577,12.55482 7.87014,18.75282 21.35735,20.13467 9.12738,0.93516 15.8986,-1.1459 25.81241,-7.93316 12.15347,-8.32059 12.48547,-8.04811 12.91285,10.59753 0.33725,14.71402 0.47784,15.44908 2.7247,14.2466 1.303,-0.69735 4.14548,-3.51077 6.31663,-6.25206 z"
         id="path3436"
         inkscape:connector-curvature="0" />
      <path
         style="fill:#dddee0"
         d="m 296.07571,607.10062 c -21.85186,-5.73893 -42.09429,-22.33357 -51.60894,-42.30876 -6.06242,-12.72752 -7.88472,-20.62651 -7.88472,-34.17722 0,-13.5507 1.8223,-21.44969 7.88472,-34.17721 7.23867,-15.19696 21.22211,-29.1804 36.41907,-36.41907 12.72752,-6.06242 20.62651,-7.88472 34.17721,-7.88472 13.55071,0 21.4497,1.8223 34.17722,7.88472 8.63429,4.11271 12.7862,7.15298 21.0203,15.39229 16.7819,16.79248 24.10214,35.61629 22.94463,59.00146 -1.73007,34.95254 -26.4592,64.70263 -60.43982,72.71144 -10.20611,2.40546 -27.48432,2.39466 -36.68967,-0.0229 z m 52.59158,-30.80733 c 16.8948,-9.69068 26.75395,-30.74578 23.3048,-49.76949 -2.01924,-11.13706 -6.83611,-20.54385 -14.37195,-28.06672 l -6.46114,-6.45003 -0.63291,8.86076 c -0.56434,7.90085 -0.9312,8.90324 -3.38635,9.25285 -1.5144,0.21565 -4.93212,-0.96353 -7.59494,-2.62039 -8.18935,-5.09558 -15.25396,-7.26537 -23.65536,-7.26537 -17.21703,0 -25.24899,9.20441 -25.4054,29.11392 -0.14409,18.34085 5.98825,24.64964 23.96468,24.65424 10.95969,0.003 16.49273,-2.04748 26.25348,-9.72828 8.3505,-6.57106 9.19098,-5.33359 9.19098,13.53212 l 0,16.39809 -5.06329,2.86754 c -2.78481,1.57715 -4.49367,2.87158 -3.79747,2.87651 0.6962,0.005 4.1409,-1.64018 7.65487,-3.65575 z"
         id="path3434"
         inkscape:connector-curvature="0" />
      <path
         style="fill:#dadcde"
         d="m 296.07571,607.17641 c -22.15692,-6.06029 -42.11366,-22.45003 -51.60894,-42.38455 -6.06242,-12.72752 -7.88472,-20.62651 -7.88472,-34.17722 0,-13.5507 1.8223,-21.44969 7.88472,-34.17721 7.23867,-15.19696 21.22211,-29.1804 36.41907,-36.41907 12.72752,-6.06242 20.62651,-7.88472 34.17721,-7.88472 13.55071,0 21.4497,1.8223 34.17722,7.88472 20.67645,9.84868 36.991,30.2339 42.33169,52.89396 9.00805,38.22029 -13.42108,78.43715 -51.27199,91.9339 -11.85724,4.22803 -33.17833,5.35145 -44.22426,2.33019 z m 39.13085,-19.01908 c 11.08014,-2.61176 19.09135,-7.24661 27.17611,-15.72264 10.95462,-11.48478 16.13629,-23.84309 16.12226,-38.45165 -0.0151,-15.72721 -8.3488,-32.95544 -20.65046,-42.69073 l -6.71547,-5.31449 -0.32029,9.34373 c -0.39626,11.56005 -1.15483,15.03993 -3.27851,15.03993 -0.90851,0 -6.15499,-2.33028 -11.65883,-5.17839 -9.79551,-5.06895 -10.23971,-5.16927 -21.01818,-4.74684 -8.6337,0.33838 -11.78236,0.99238 -14.58287,3.02899 -4.84106,3.52055 -9.27539,12.79144 -10.14408,21.20831 -2.08805,20.2312 5.87936,30.00586 24.44076,29.98467 8.42863,-0.01 14.00376,-1.74137 21.32095,-6.6227 14.49081,-9.66689 14.60814,-9.58771 14.60814,9.85743 0,13.87904 -0.0985,14.38757 -3.26961,16.88198 -9.0098,7.08711 -32.28474,11.08775 -46.06315,7.91762 -3.11404,-0.71646 -5.8401,-1.12445 -6.05792,-0.90663 -0.73173,0.73174 8.18685,4.48172 15.04782,6.32714 8.84979,2.38037 15.0858,2.39139 25.04333,0.0443 z"
         id="path3432"
         inkscape:connector-curvature="0" />
      <path
         style="fill:#d4d9e2"
         d="m 296.07571,607.17641 c -22.15692,-6.06029 -42.11366,-22.45003 -51.60894,-42.38455 -6.06242,-12.72752 -7.88472,-20.62651 -7.88472,-34.17722 0,-13.5507 1.8223,-21.44969 7.88472,-34.17721 7.23867,-15.19696 21.22211,-29.1804 36.41907,-36.41907 12.72752,-6.06242 20.62651,-7.88472 34.17721,-7.88472 13.55071,0 21.4497,1.8223 34.17722,7.88472 20.67645,9.84868 36.991,30.2339 42.33169,52.89396 9.00805,38.22029 -13.42108,78.43715 -51.27199,91.9339 -11.85724,4.22803 -33.17833,5.35145 -44.22426,2.33019 z m 42.75806,-16.64659 c 21.31083,-5.33109 39.19467,-25.81856 41.90348,-48.00403 3.06328,-25.08857 -7.34969,-47.01211 -28.17235,-59.31423 -13.67039,-8.07653 -33.14347,-10.24299 -47.18475,-5.2495 -4.55578,1.62017 -4.04748,1.69089 7.78417,1.08297 13.54282,-0.69583 25.28669,1.3743 32.87046,5.7942 3.66545,2.13626 3.85481,2.66225 4.20257,11.67373 0.24867,6.44369 -0.17972,10.18049 -1.3507,11.7819 -1.63676,2.2384 -2.13961,2.12266 -11.03955,-2.54091 -8.25267,-4.32441 -10.54091,-4.9377 -19.90383,-5.33462 -12.22548,-0.51828 -16.4603,0.81247 -21.74709,6.83378 -6.48039,7.38076 -8.57845,26.77794 -3.98961,36.88518 3.17384,6.9906 8.26003,9.53609 20.50586,10.26261 8.46046,0.50194 10.57936,0.1598 16.88292,-2.72606 3.96452,-1.81502 8.91095,-4.73278 10.99205,-6.48391 4.31476,-3.63063 8.02664,-4.10996 9.15035,-1.18162 1.22639,3.19592 0.88758,25.78948 -0.42347,28.2392 -0.6555,1.22481 -5.35487,4.17677 -10.44304,6.55989 -8.79141,4.11762 -9.94329,4.3318 -23.17527,4.30923 -16.4675,-0.0281 -24.69925,-2.65244 -34.00044,-10.83968 -10.84389,-9.54517 -17.08378,-28.3943 -15.63756,-47.23711 0.41386,-5.39224 0.27676,-7.71816 -0.343,-5.8186 -0.56786,1.74051 -1.08925,8.09798 -1.15865,14.12773 -0.28145,24.45465 11.40433,43.34241 33.22793,53.70639 14.0309,6.66324 24.69224,7.56537 41.04952,3.47346 z"
         id="path3430"
         inkscape:connector-curvature="0" />
      <path
         style="fill:#d8dadd"
         d="m 293.70072,605.83283 c -11.80014,-3.17377 -24.15874,-10.51595 -33.83854,-20.10328 -7.22424,-7.15522 -10.13564,-11.28326 -14.76681,-20.93769 -6.52794,-13.60857 -8.51332,-21.579 -8.51332,-34.17722 0,-12.59821 1.98538,-20.56864 8.51332,-34.17721 4.59679,-9.58275 7.5962,-13.85305 14.76681,-21.02366 7.17061,-7.17061 11.44091,-10.17002 21.02366,-14.76681 6.61392,-3.17265 15.04386,-6.38606 18.73319,-7.14089 24.17093,-4.94537 52.24986,3.64029 69.8744,21.36542 15.48247,15.57082 21.60017,29.70852 22.4922,51.97833 1.02559,25.60365 -4.75693,40.67793 -22.37648,58.33261 -11.79246,11.81596 -23.31689,18.51525 -36.57043,21.25883 -9.31348,1.92795 -31.16427,1.59 -39.338,-0.60843 z m 45.13305,-15.30301 c 21.31083,-5.33109 39.19467,-25.81856 41.90348,-48.00403 3.06328,-25.08857 -7.34969,-47.01211 -28.17235,-59.31423 -13.67039,-8.07653 -33.14347,-10.24299 -47.18475,-5.2495 -4.55578,1.62017 -4.04748,1.69089 7.78417,1.08297 13.54282,-0.69583 25.28669,1.3743 32.87046,5.7942 3.66545,2.13626 3.85481,2.66225 4.20257,11.67373 0.24867,6.44369 -0.17972,10.18049 -1.3507,11.7819 -1.63676,2.2384 -2.13961,2.12266 -11.03955,-2.54091 -8.25267,-4.32441 -10.54091,-4.9377 -19.90383,-5.33462 -12.22548,-0.51828 -16.4603,0.81247 -21.74709,6.83378 -6.48039,7.38076 -8.57845,26.77794 -3.98961,36.88518 3.17384,6.9906 8.26003,9.53609 20.50586,10.26261 8.46046,0.50194 10.57936,0.1598 16.88292,-2.72606 3.96452,-1.81502 8.91095,-4.73278 10.99205,-6.48391 4.31476,-3.63063 8.02664,-4.10996 9.15035,-1.18162 1.22639,3.19592 0.88758,25.78948 -0.42347,28.2392 -0.6555,1.22481 -5.35487,4.17677 -10.44304,6.55989 -8.79141,4.11762 -9.94329,4.3318 -23.17527,4.30923 -16.4675,-0.0281 -24.69925,-2.65244 -34.00044,-10.83968 -10.84389,-9.54517 -17.08378,-28.3943 -15.63756,-47.23711 0.41386,-5.39224 0.27676,-7.71816 -0.343,-5.8186 -0.56786,1.74051 -1.08925,8.09798 -1.15865,14.12773 -0.28145,24.45465 11.40433,43.34241 33.22793,53.70639 14.0309,6.66324 24.69224,7.56537 41.04952,3.47346 z"
         id="path3428"
         inkscape:connector-curvature="0" />
      <path
         style="fill:#d6d8dc"
         d="m 293.70072,605.83283 c -11.80014,-3.17377 -24.15874,-10.51595 -33.83854,-20.10328 -7.22424,-7.15522 -10.13564,-11.28326 -14.76681,-20.93769 -6.52794,-13.60857 -8.51332,-21.579 -8.51332,-34.17722 0,-12.59821 1.98538,-20.56864 8.51332,-34.17721 4.59679,-9.58275 7.5962,-13.85305 14.76681,-21.02366 7.17061,-7.17061 11.44091,-10.17002 21.02366,-14.76681 6.61392,-3.17265 15.04386,-6.38606 18.73319,-7.14089 24.17093,-4.94537 52.24986,3.64029 69.8744,21.36542 15.48247,15.57082 21.60017,29.70852 22.4922,51.97833 1.02559,25.60365 -4.75693,40.67793 -22.37648,58.33261 -11.79246,11.81596 -23.31689,18.51525 -36.57043,21.25883 -9.31348,1.92795 -31.16427,1.59 -39.338,-0.60843 z m 43.26955,-12.54942 c 11.34174,-2.95415 19.83643,-7.91884 28.29328,-16.53594 29.80693,-30.37176 21.56554,-79.56071 -16.32005,-97.4065 -19.34607,-9.11286 -39.06864,-8.21063 -57.57315,2.63373 -6.92073,4.05582 -6.93913,4.86351 -0.0415,1.82021 7.85964,-3.46774 21.60275,-5.50988 31.85969,-4.73415 10.16746,0.76897 23.37307,4.94047 25.73525,8.12949 1.63734,2.21045 2.1249,14.0554 0.78445,19.05731 -1.03072,3.84609 -4.20246,3.61727 -12.19603,-0.87988 -11.89985,-6.69481 -30.24155,-7.49729 -38.3002,-1.67569 -5.31,3.83597 -8.62152,12.39036 -9.22149,23.82114 -1.01918,19.41796 5.73592,27.06391 23.96399,27.12435 10.06372,0.0334 17.03771,-2.23836 25.14778,-8.19171 9.31527,-6.83803 9.66723,-6.53811 10.45563,8.90953 0.3747,7.34154 0.40664,14.3984 0.071,15.68191 -0.77009,2.94484 -10.1451,8.066 -19.94341,10.89422 -5.52679,1.59526 -10.24025,1.99883 -17.72152,1.51729 -22.43521,-1.44405 -37.25499,-12.81847 -43.27443,-33.21382 -2.83453,-9.60413 -2.83271,-30.16999 0.003,-39.18144 2.3542,-7.48005 1.63158,-9.31956 -1.09631,-2.79079 -10.59311,25.35287 -6.01705,50.11567 12.72455,68.85726 15.27946,15.27946 36.64177,21.37471 56.64899,16.16348 z"
         id="path3426"
         inkscape:connector-curvature="0" />
      <path
         style="fill:#d2d5da"
         d="m 293.70072,605.83283 c -11.80014,-3.17377 -24.15874,-10.51595 -33.83854,-20.10328 -7.22424,-7.15522 -10.13564,-11.28326 -14.76681,-20.93769 -6.52794,-13.60857 -8.51332,-21.579 -8.51332,-34.17722 0,-12.59821 1.98538,-20.56864 8.51332,-34.17721 4.59679,-9.58275 7.5962,-13.85305 14.76681,-21.02366 7.17061,-7.17061 11.44091,-10.17002 21.02366,-14.76681 6.61392,-3.17265 15.04386,-6.38606 18.73319,-7.14089 24.17093,-4.94537 52.24986,3.64029 69.8744,21.36542 15.48247,15.57082 21.60017,29.70852 22.4922,51.97833 1.02559,25.60365 -4.75693,40.67793 -22.37648,58.33261 -11.79246,11.81596 -23.31689,18.51525 -36.57043,21.25883 -9.31348,1.92795 -31.16427,1.59 -39.338,-0.60843 z m 40.6912,-9.98943 c 40.16344,-8.51081 61.87028,-53.80123 43.84804,-91.48707 -3.64783,-7.62788 -19.00328,-23.07219 -26.46805,-26.62121 -38.45176,-18.28135 -81.9267,2.97138 -90.68692,44.33231 -5.79848,27.37726 8.67743,56.36278 34.30455,68.68893 13.72984,6.60379 24.94294,8.06631 39.00238,5.08704 z m -33.22223,-14.0119 c -19.36387,-5.43133 -31.47868,-20.06032 -34.14567,-41.2319 -2.88778,-22.92439 4.31173,-43.49961 18.51233,-52.9057 14.83668,-9.82741 39.49458,-11.48587 57.24421,-3.85019 l 6.45971,2.7789 0,11.23652 c 0,13.37946 0.13074,13.31625 -13.55379,6.55298 -8.60176,-4.25121 -10.43597,-4.68354 -19.87068,-4.68354 -8.63778,0 -11.19044,0.49213 -15.10647,2.91237 -6.98943,4.31971 -10.04102,11.25939 -10.70422,24.34272 -0.99981,19.72397 3.96678,26.33605 20.583,27.40242 12.89827,0.82776 17.06505,-0.22497 26.84312,-6.78189 4.66493,-3.12818 9.23035,-5.40031 10.14537,-5.04918 1.24046,0.47601 1.66367,4.3296 1.66367,15.1489 0,14.48635 -0.006,14.51474 -3.58443,17.06284 -10.83935,7.7183 -30.83494,10.89375 -44.48615,7.06475 z"
         id="path3424"
         inkscape:connector-curvature="0" />
      <path
         style="fill:#ccd1d9"
         d="m 295.08455,605.99529 c -38.7165,-9.37457 -65.18525,-51.45427 -57.13007,-90.82467 0.75483,-3.68933 3.96824,-12.11927 7.14089,-18.73319 18.30401,-38.1577 63.34981,-54.4373 102.06084,-36.88488 10.61629,4.81366 16.55077,9.30739 25.84122,19.56763 13.14736,14.51973 19.28081,30.52771 19.28081,50.32182 0,15.22693 -1.71073,22.78613 -8.15444,36.03193 -9.54185,19.61441 -28.35536,35.00981 -49.38999,40.41665 -9.11641,2.34333 -30.17423,2.39894 -39.64926,0.10468 z m 44.30356,-9.53918 c 27.27959,-8.42581 46.56102,-34.89021 46.56102,-63.90653 0,-19.35867 -5.53099,-32.84814 -18.96829,-46.26153 -9.82656,-9.80908 -18.56384,-14.29896 -33.55929,-17.24531 -10.09701,-1.98389 -11.44614,-1.98074 -21.78607,0.0509 -44.68829,8.78048 -67.63271,54.72023 -47.68897,95.48375 6.65894,13.61039 26.37726,29.66683 40.50609,32.98373 9.12272,2.14164 26.1698,1.60247 34.93551,-1.10499 z m -35.71746,-14.36086 c -9.99578,-2.30446 -16.28352,-5.6662 -22.82523,-12.20352 -10.49471,-10.48767 -14.58781,-23.46263 -13.56584,-43.00312 1.10871,-21.19906 8.59706,-34.17513 24.13698,-41.82541 13.19904,-6.49786 34.1152,-7.35903 48.85367,-2.01141 8.64351,3.13616 8.97004,3.6766 8.97004,14.84619 0,11.90384 -1.17754,12.97073 -9.1616,8.30069 -15.94948,-9.32919 -34.78145,-9.46107 -43.41763,-0.30404 -4.97143,5.27124 -6.99214,12.17113 -7.05435,24.08764 -0.0845,16.17809 4.79836,22.48043 19.27566,24.87939 10.50362,1.74051 18.98086,-0.47959 30.04631,-7.86882 4.25329,-2.84024 8.31338,-4.80553 9.02243,-4.36731 0.75363,0.46577 1.28918,6.82067 1.28918,15.29761 l 0,14.50087 -4.11393,2.52293 c -11.59464,7.1106 -28.77179,10.0725 -41.45569,7.14831 z"
         id="path3422"
         inkscape:connector-curvature="0" />
      <path
         style="fill:#c9ced6"
         d="m 294.80989,605.82646 c -13.5205,-3.56705 -22.75338,-9.12749 -34.31461,-20.66572 -17.08193,-17.04794 -22.67964,-30.82616 -22.61647,-55.66823 0.0387,-15.21911 1.31379,-20.84194 7.75399,-34.19327 9.55294,-19.80438 30.34434,-36.17738 51.45459,-40.51992 8.64526,-1.7784 27.36186,-1.77094 35.95133,0.0143 20.48122,4.25688 41.76899,21.51921 51.3548,41.64379 2.81875,5.91772 5.74594,13.77804 6.50486,17.46737 1.96309,9.5431 1.70663,26.28484 -0.5379,35.11478 -5.62404,22.12482 -21.21749,41.43527 -41.12021,50.92197 -5.91772,2.82071 -13.77804,5.7495 -17.46737,6.50842 -9.2798,1.90893 -28.59936,1.58304 -36.96301,-0.62351 z m 45.02801,-8.25493 c 15.57424,-4.78714 32.22706,-19.07903 39.8681,-34.21583 15.60774,-30.91874 5.88782,-69.30275 -22.13605,-87.41545 -19.17274,-12.39194 -43.43814,-13.55865 -65.2917,-3.1393 -10.40256,4.95973 -24.43545,18.70346 -30.07012,29.45049 -13.85043,26.41696 -9.11594,58.44024 11.77464,79.64162 17.21853,17.47471 41.33339,23.21586 65.85513,15.67847 z m -33.18384,-15.06191 c -24.20347,-3.54146 -39.69227,-23.37754 -39.69227,-50.8328 0,-33.51713 18.08794,-51.69508 51.43909,-51.69508 11.61472,0 24.88811,2.99394 29.25711,6.59923 1.98754,1.64011 2.18656,20.72599 0.22874,21.93599 -0.74444,0.46009 -5.58062,-1.30903 -10.74706,-3.93138 -7.90056,-4.01012 -10.95467,-4.84972 -19.21608,-5.28268 -17.1208,-0.89725 -25.34876,5.68334 -28.19347,22.5487 -1.62189,9.61565 -1.0695,15.5585 2.13584,22.97815 2.46399,5.7036 9.19535,9.36753 19.39963,10.55937 9.48494,1.10783 16.68293,-1.01213 26.96913,-7.94299 5.61804,-3.78543 9.04565,-5.37366 9.85355,-4.56576 0.70748,0.70748 1.08448,7.4207 0.87896,15.65158 l -0.35987,14.41275 -5.06329,2.89485 c -9.95977,5.69433 -24.98798,8.41157 -36.89001,6.67007 z"
         id="path3420"
         inkscape:connector-curvature="0" />
      <path
         style="fill:#c4ccd9"
         d="m 294.80989,605.82646 c -13.5205,-3.56705 -22.75338,-9.12749 -34.31461,-20.66572 -17.08193,-17.04794 -22.67964,-30.82616 -22.61647,-55.66823 0.0387,-15.21911 1.31379,-20.84194 7.75399,-34.19327 9.55294,-19.80438 30.34434,-36.17738 51.45459,-40.51992 8.64526,-1.7784 27.36186,-1.77094 35.95133,0.0143 20.48122,4.25688 41.76899,21.51921 51.3548,41.64379 2.81875,5.91772 5.74594,13.77804 6.50486,17.46737 1.96309,9.5431 1.70663,26.28484 -0.5379,35.11478 -5.62404,22.12482 -21.21749,41.43527 -41.12021,50.92197 -5.91772,2.82071 -13.77804,5.7495 -17.46737,6.50842 -9.2798,1.90893 -28.59936,1.58304 -36.96301,-0.62351 z m 44.37698,-7.22103 c 29.53868,-10.07013 48.2714,-35.73455 48.24126,-66.09205 -0.0213,-21.40774 -5.53598,-35.17444 -19.78675,-49.39468 -21.00945,-20.96443 -48.92925,-25.40061 -76.03592,-12.08134 -43.04181,21.14922 -52.71456,78.36639 -18.95255,112.10983 7.77727,7.77298 19.75893,14.71646 29.22621,16.93686 9.86286,2.31316 28.33252,1.58115 37.30775,-1.47862 z m -41.31469,-18.32996 c -12.6449,-4.50505 -22.41414,-14.20335 -27.32432,-27.1259 -3.11706,-8.20342 -4.30195,-24.6918 -2.47396,-34.4263 3.15061,-16.77776 11.00306,-27.35488 25.35802,-34.15681 7.95553,-3.76964 9.06941,-3.95181 24.16278,-3.95181 14.0142,0 16.69091,0.36205 23.41772,3.16747 l 7.59494,3.16748 0.37323,10.00359 c 0.20673,5.54075 -0.19321,10.57004 -0.89648,11.27331 -0.84908,0.84908 -4.46337,-0.3513 -10.90986,-3.62336 -10.13751,-5.14554 -20.63611,-6.90495 -30.33989,-5.08451 -6.14859,1.15348 -12.67312,7.24558 -15.4038,14.38285 -3.17834,8.30737 -3.13793,24.53154 0.0773,31.01681 6.45661,13.02346 31.53136,14.50615 46.90213,2.77337 3.18392,-2.43033 6.92325,-4.41879 8.30963,-4.41879 2.36327,0 2.52069,0.86392 2.52069,13.83364 0,15.91645 -0.20542,16.30326 -11.36295,21.39677 -9.4905,4.33249 -30.23896,5.25163 -40.00514,1.77219 z"
         id="path3418"
         inkscape:connector-curvature="0" />
      <path
         style="fill:#c4cad4"
         d="m 296.07571,605.83479 c -26.65462,-7.00027 -49.50203,-29.59317 -56.29317,-55.6661 -2.26433,-8.69335 -2.53628,-27.9488 -0.53005,-37.52971 2.45956,-11.7458 9.76104,-24.70018 20.01727,-35.51486 7.76711,-8.19004 11.38896,-10.88891 20.88607,-15.56356 12.92245,-6.36065 20.64783,-8.1611 35.01769,-8.1611 13.35849,0 21.36734,1.8337 33.68098,7.7116 31.75902,15.16012 50.04184,53.34432 41.48502,86.6427 -4.36594,16.98981 -17.84285,37.27254 -30.46464,45.84927 -6.44649,4.38051 -19.61274,10.35287 -27.38355,12.4215 -8.52419,2.26918 -27.42796,2.17068 -36.41562,-0.18974 z m 43.11116,-7.22936 c 29.53868,-10.07013 48.2714,-35.73455 48.24126,-66.09205 -0.0213,-21.40774 -5.53598,-35.17444 -19.78675,-49.39468 -21.00945,-20.96443 -48.92925,-25.40061 -76.03592,-12.08134 -43.04181,21.14922 -52.71456,78.36639 -18.95255,112.10983 7.77727,7.77298 19.75893,14.71646 29.22621,16.93686 9.86286,2.31316 28.33252,1.58115 37.30775,-1.47862 z m -41.31469,-18.32996 c -12.6449,-4.50505 -22.41414,-14.20335 -27.32432,-27.1259 -3.11706,-8.20342 -4.30195,-24.6918 -2.47396,-34.4263 3.15061,-16.77776 11.00306,-27.35488 25.35802,-34.15681 7.95553,-3.76964 9.06941,-3.95181 24.16278,-3.95181 14.0142,0 16.69091,0.36205 23.41772,3.16747 l 7.59494,3.16748 0.37323,10.00359 c 0.20673,5.54075 -0.19321,10.57004 -0.89648,11.27331 -0.84908,0.84908 -4.46337,-0.3513 -10.90986,-3.62336 -10.13751,-5.14554 -20.63611,-6.90495 -30.33989,-5.08451 -6.14859,1.15348 -12.67312,7.24558 -15.4038,14.38285 -3.17834,8.30737 -3.13793,24.53154 0.0773,31.01681 6.45661,13.02346 31.53136,14.50615 46.90213,2.77337 3.18392,-2.43033 6.92325,-4.41879 8.30963,-4.41879 2.36327,0 2.52069,0.86392 2.52069,13.83364 0,15.91645 -0.20542,16.30326 -11.36295,21.39677 -9.4905,4.33249 -30.23896,5.25163 -40.00514,1.77219 z"
         id="path3416"
         inkscape:connector-curvature="0" />
      <path
         style="fill:#c0c7d2"
         d="m 296.07571,605.83479 c -26.65462,-7.00027 -49.50203,-29.59317 -56.29317,-55.6661 -2.26433,-8.69335 -2.53628,-27.9488 -0.53005,-37.52971 2.45956,-11.7458 9.76104,-24.70018 20.01727,-35.51486 7.76711,-8.19004 11.38896,-10.88891 20.88607,-15.56356 12.92245,-6.36065 20.64783,-8.1611 35.01769,-8.1611 13.44651,0 21.37019,1.83569 34.06675,7.89229 19.59501,9.34735 35.36482,29.21725 40.95359,51.60138 1.98113,7.93484 1.72488,26.39274 -0.50086,36.07594 -4.61895,20.09501 -21.18129,40.96069 -39.71107,50.02903 -5.62943,2.75501 -13.63032,5.86919 -17.77976,6.92042 -9.38383,2.37731 -26.91034,2.33669 -36.12646,-0.0837 z m 44.3038,-6.78284 c 10.45223,-3.61876 23.7784,-12.44418 30.34007,-20.09309 19.18546,-22.36439 23.19023,-55.07369 9.85664,-80.50489 -5.67483,-10.82359 -19.63913,-24.43907 -30.31293,-29.55572 -11.08827,-5.31533 -16.99089,-6.57651 -30.76986,-6.57441 -31.5609,0.005 -60.03206,23.13637 -67.65893,54.96991 -2.09865,8.75946 -1.82056,26.4254 0.55676,35.36969 6.18835,23.28264 26.36477,43.12035 49.08022,48.2563 11.20508,2.53347 28.60876,1.69799 38.90803,-1.86779 z m -42.52796,-19.12781 c -17.21667,-5.45877 -28.41493,-21.30137 -30.43725,-43.06073 -2.2807,-24.5395 8.81181,-45.53108 28.09253,-53.16258 6.43107,-2.54548 9.74929,-2.98134 22.72078,-2.98444 12.97327,-0.003 16.20408,0.41964 22.13996,2.89697 3.82255,1.59533 7.37395,3.56693 7.89201,4.38133 1.32821,2.08796 1.17509,17.56803 -0.19518,19.73294 -0.93346,1.47478 -2.78303,0.93162 -10.32747,-3.03287 -14.65706,-7.70207 -31.2932,-7.92871 -39.70738,-0.54097 -6.21402,5.45598 -8.91586,13.47463 -8.91586,26.46085 0,12.73942 2.35912,17.97036 9.85951,21.86171 5.91349,3.06805 18.73961,4.219 25.7807,2.31343 2.89326,-0.78302 8.745,-3.75055 13.00388,-6.59452 4.28623,-2.86224 8.57809,-4.85054 9.61294,-4.45343 1.48429,0.56957 1.86955,3.45123 1.86955,13.98386 l 0,13.26644 -4.11393,3.12087 c -10.72322,8.13476 -31.78194,10.72335 -47.27479,5.81114 z"
         id="path3414"
         inkscape:connector-curvature="0" />
      <path
         style="fill:#bbc3d1"
         d="m 297.97445,606.00345 c -17.28759,-4.40054 -27.96742,-10.51578 -39.31333,-22.51068 -8.88971,-9.39821 -17.05123,-24.58794 -19.43339,-36.16828 -1.76939,-8.60148 -1.76939,-24.81821 0,-33.41969 4.41234,-21.44957 21.46968,-42.99417 41.65811,-52.61707 12.72486,-6.06535 20.62296,-7.88827 34.17721,-7.88827 12.317,0 21.06494,1.77824 31.19083,6.34033 15.94341,7.1831 28.36779,18.79901 36.34532,33.98028 5.80028,11.03794 8.37086,21.99225 8.39451,35.77244 0.0263,15.31943 -1.69596,22.82125 -8.30134,36.15916 -9.83784,19.86506 -28.05387,34.37369 -50.4902,40.21423 -8.94125,2.32755 -25.36502,2.39355 -34.22772,0.13755 z m 38.6943,-5.25761 c 23.88978,-7.02134 42.64364,-25.78287 49.77096,-49.79132 2.64153,-8.898 2.6812,-28.7427 0.0775,-38.73916 -5.96424,-22.89825 -26.39947,-43.30364 -49.35483,-49.28275 -4.09272,-1.06602 -12.04374,-1.93822 -17.66892,-1.93822 -19.81175,0 -35.04174,6.44641 -49.51949,20.96014 -28.33925,28.40969 -29.11374,73.02014 -1.74633,100.58875 8.54661,8.60944 19.97656,15.55572 30.26813,18.39474 8.52338,2.35126 29.88501,2.24371 38.17301,-0.19218 z m -36.43349,-19.99892 c -18.31828,-5.96508 -28.9225,-19.22621 -32.19226,-40.25808 -3.97294,-25.55496 7.43045,-48.90076 27.77748,-56.86793 9.89033,-3.8727 33.14283,-4.20946 42.6603,-0.61783 9.85384,3.71856 10.75949,4.95111 10.75949,14.6432 0,11.69958 -0.98304,12.24846 -11.87605,6.63102 -7.92465,-4.08668 -10.30615,-4.69726 -19.76952,-5.06859 -9.3903,-0.36846 -11.47743,-0.0388 -16.40124,2.59046 -8.7318,4.6627 -12.00868,12.15543 -12.04859,27.54965 -0.0524,20.20605 5.55238,25.95601 25.28527,25.94029 12.08342,-0.01 17.09346,-1.71929 26.88582,-9.17471 6.81274,-5.18688 7.92431,-3.57662 7.92431,11.47952 0,15.11875 -0.01,15.13593 -12.05965,20.69319 -6.27233,2.89279 -9.60964,3.54742 -19.58592,3.84186 -7.68522,0.22684 -13.95047,-0.27196 -17.35944,-1.38205 z"
         id="path3412"
         inkscape:connector-curvature="0" />
      <path
         style="fill:#b7c0ce"
         d="m 297.10982,605.69317 c -10.57777,-2.63083 -26.79886,-11.22668 -34.54444,-18.3057 -16.2527,-14.85405 -24.71751,-34.2966 -24.71751,-56.77283 0,-13.55425 1.82292,-21.45235 7.88827,-34.17721 7.18767,-15.07942 20.07028,-27.96203 35.1497,-35.1497 12.57578,-5.99429 20.62979,-7.88827 33.5443,-7.88827 12.67307,0 20.80894,1.881 33.3796,7.71729 8.69212,4.03557 12.4561,6.79633 20.9593,15.37297 10.31629,10.4054 14.08501,16.47374 19.11039,30.77127 2.56571,7.29959 4.17798,32.94158 2.19588,34.92368 -0.84875,0.84875 -1.07522,-1.59227 -0.68333,-7.36546 1.29793,-19.12094 -5.85369,-37.97992 -20.08323,-52.95994 -31.50378,-33.16528 -83.44428,-28.51633 -109.50665,9.80144 -28.81825,42.36957 -6.74086,100.12844 42.23962,110.50729 20.72337,4.39124 42.16958,-0.33288 59.44076,-13.09343 4.62383,-3.41624 14.23315,-14.07382 19.15533,-21.2449 0.90789,-1.32269 0.10405,0.4432 -1.7862,3.92421 -5.46873,10.07079 -17.83327,21.281 -29.91631,27.12343 -5.74999,2.78024 -13.30263,5.615 -16.78364,6.29945 -10.54705,2.07379 -27.76019,2.32746 -35.04184,0.51641 z m 3.93975,-24.83878 c -23.80414,-6.71392 -36.84276,-30.13502 -32.83151,-58.97484 3.24647,-23.34125 15.97925,-36.78266 38.5701,-40.71669 15.1878,-2.64484 37.93314,1.60108 41.19146,7.6893 0.69336,1.29555 1.26065,5.82859 1.26065,10.07343 0,9.90334 -1.43912,10.48097 -12.33003,4.94898 -7.43066,-3.77438 -9.74833,-4.31443 -19.87617,-4.63144 -10.02761,-0.31388 -12.09004,0.003 -16.45362,2.53164 -7.47754,4.33236 -11.00883,12.15455 -11.72197,25.9654 -0.50681,9.81511 -0.23173,11.75939 2.37261,16.76957 3.85942,7.42467 9.14298,10.34826 20.12106,11.13374 11.0438,0.79018 18.23843,-1.18734 27.22646,-7.48348 3.83714,-2.68792 7.45999,-4.88713 8.05079,-4.88713 1.95259,0 2.61087,3.87043 2.61087,15.35094 0,10.16985 -0.30355,11.64996 -2.9273,14.27372 -7.47972,7.47972 -31.79825,11.75467 -45.2634,7.95686 z m 82.40668,-19.22709 c 0,-0.6962 0.55217,-2.12025 1.22706,-3.16455 0.67488,-1.04431 1.22705,-1.32912 1.22705,-0.63292 0,0.69621 -0.55217,2.12026 -1.22705,3.16456 -0.67489,1.0443 -1.22706,1.32911 -1.22706,0.63291 z m 3.86706,-10.75949 c -0.0382,-1.04431 0.48258,-2.75317 1.15746,-3.79747 1.49535,-2.31388 1.49535,-0.3153 0,3.16456 -0.71731,1.66929 -1.11158,1.88488 -1.15746,0.63291 z"
         id="path3410"
         inkscape:connector-curvature="0" />
      <path
         style="fill:#b3bdd0"
         d="m 304.42586,606.89727 c -0.17347,-0.17346 -3.40486,-0.88548 -7.18087,-1.58226 -11.77103,-2.17209 -27.30248,-10.72387 -36.61231,-20.15914 -14.78078,-14.97991 -21.4585,-29.76079 -22.48778,-49.77583 -1.24006,-24.11397 5.7876,-42.76991 22.35062,-59.33293 15.17853,-15.17853 32.966,-22.64765 53.93462,-22.64765 12.85637,0 20.96899,1.89282 33.25788,7.75968 13.56277,6.47503 26.35805,18.3083 33.26813,30.76691 6.8177,12.29199 6.3138,14.94265 -0.59649,3.13779 -24.1262,-41.2148 -79.26686,-48.34261 -112.86336,-14.58939 -24.23273,24.34576 -28.72492,60.17896 -11.30343,90.16497 8.49791,14.62668 27.89048,28.45878 45.13024,32.18994 6.87881,1.48878 29.17205,1.11529 36.52475,-0.61188 2.08861,-0.49064 1.65822,-0.041 -1.26582,1.32236 -3.68398,1.71773 -30.94914,4.56449 -32.15618,3.35743 z m 42.83521,-8.62777 c 3.43675,-1.70384 6.56966,-3.08012 6.96202,-3.05839 1.65958,0.0919 -9.58472,6.2712 -11.31193,6.21647 -1.04431,-0.0332 0.91315,-1.45423 4.34991,-3.15808 z m -47.79603,-18.16511 c -23.07536,-7.63028 -34.62394,-29.16661 -31.05507,-57.91294 2.9066,-23.41184 16.11442,-37.29837 39.06236,-41.06965 14.87149,-2.44399 37.35886,1.84747 40.50729,7.73036 1.38507,2.58803 1.71028,13.80144 0.49231,16.97541 -1.05853,2.75849 -2.20476,2.56674 -11.23699,-1.87981 -13.48611,-6.63919 -30.31992,-7.09679 -38.80504,-1.05485 -5.39965,3.84488 -8.97207,12.54846 -9.68762,23.60212 -1.33318,20.59498 6.32212,29.43607 25.48806,29.43607 9.76935,0 16.82584,-2.31826 25.05747,-8.2321 3.38847,-2.43437 6.66821,-4.42613 7.28831,-4.42613 2.00776,0 2.66415,3.78288 2.66415,15.35384 0,10.61293 -0.21477,11.54836 -3.30996,14.41689 -8.80953,8.1644 -32.32243,11.73738 -46.46527,7.06079 z m 90.38149,-59.0889 c 0.0608,-1.47461 0.36069,-1.77456 0.76476,-0.76477 0.36566,0.91377 0.3207,2.00554 -0.0999,2.42616 -0.42063,0.42062 -0.7198,-0.327 -0.66484,-1.66139 z"
         id="path3408"
         inkscape:connector-curvature="0" />
      <path
         style="fill:#b3bccd"
         d="m 299.87318,605.76293 c -22.94166,-4.36398 -44.41622,-21.14897 -54.38225,-42.50637 -6.18991,-13.26512 -8.16704,-23.33504 -7.34931,-37.43165 1.15009,-19.82622 10.2171,-38.999 24.70483,-52.23997 7.88935,-7.21042 26.4334,-16.69766 36.77258,-18.81305 32.31583,-6.61182 68.78497,10.96119 82.53407,39.76983 5.42927,11.376 4.68671,11.59218 -1.79344,0.52212 -24.1262,-41.2148 -79.26686,-48.34261 -112.86336,-14.58939 -24.23273,24.34576 -28.72492,60.17896 -11.30343,90.16497 8.49791,14.62668 27.89048,28.45878 45.13024,32.18994 6.87881,1.48878 29.17205,1.11529 36.52475,-0.61188 2.14479,-0.50383 1.73688,-0.0627 -1.26582,1.36916 -4.41489,2.10515 -29.32061,3.5817 -36.70886,2.17629 z m 44.3038,-6.16095 c 1.7405,-0.99496 3.73417,-1.80902 4.43038,-1.80902 0.6962,0 -0.15823,0.81406 -1.89874,1.80902 -1.7405,0.99497 -3.73417,1.80903 -4.43038,1.80903 -0.6962,0 0.15823,-0.81406 1.89874,-1.80903 z m 7.25738,-3.32163 c 0.85865,-0.86509 1.88005,-1.25401 2.26978,-0.86428 0.38973,0.38974 -0.3128,1.09753 -1.56118,1.57289 -1.80405,0.68694 -1.94944,0.54154 -0.7086,-0.70861 z m -51.96932,-16.17596 c -23.14257,-7.65251 -34.57076,-29.16353 -30.98995,-58.33166 2.81737,-22.94936 16.20561,-36.90534 38.99724,-40.65093 14.87149,-2.44399 37.35886,1.84747 40.50729,7.73036 1.38507,2.58803 1.71028,13.80144 0.49231,16.97541 -1.05853,2.75849 -2.20476,2.56674 -11.23699,-1.87981 -13.48611,-6.63919 -30.31992,-7.09679 -38.80504,-1.05485 -5.39965,3.84488 -8.97207,12.54846 -9.68762,23.60212 -1.33318,20.59498 6.32212,29.43607 25.48806,29.43607 9.76935,0 16.82584,-2.31826 25.05747,-8.2321 3.38847,-2.43437 6.66821,-4.42613 7.28831,-4.42613 2.00776,0 2.66415,3.78288 2.66415,15.35384 0,10.61293 -0.21477,11.54836 -3.30996,14.41689 -8.80953,8.1644 -32.32243,11.73738 -46.46527,7.06079 z"
         id="path3406"
         inkscape:connector-curvature="0" />
      <path
         style="fill:#adb9cb"
         d="m 293.78533,604.00074 c -12.96681,-3.39693 -20.82326,-7.99631 -32.28869,-18.90268 -8.31054,-7.9053 -10.81735,-11.302 -15.41424,-20.88608 -6.25588,-13.04292 -8.23453,-21.11591 -8.23453,-33.59734 0,-12.59981 1.98586,-20.57053 8.51346,-34.17071 7.97416,-16.61407 17.90495,-26.54753 34.53101,-34.5403 14.38091,-6.91345 23.04147,-8.83854 36.28992,-8.06663 21.46494,1.25063 35.77555,7.4428 51.46112,22.2671 3.36158,3.177 7.00812,7.48523 8.10341,9.57384 1.37907,2.62972 -0.84881,0.95921 -7.245,-5.43248 -22.56857,-22.55264 -54.65859,-28.21174 -83.19297,-14.67116 -10.85042,5.14891 -22.86685,15.78693 -29.64927,26.24817 -22.63109,34.9063 -12.37697,81.29097 22.66512,102.52607 11.47259,6.95225 21.59719,9.80184 35.80495,10.07732 6.791,0.13168 12.08383,0.66663 11.76185,1.18878 -1.18488,1.92151 -23.82348,0.8179 -33.10614,-1.6139 z M 301.139,580.5681 c -21.29117,-5.93823 -32.91139,-23.31081 -32.91139,-49.20357 0,-29.68303 13.10962,-45.95224 40.44565,-50.19357 10.8925,-1.69003 24.13016,-0.18732 33.41681,3.7934 l 5.88438,2.52234 0,10.17157 c 0,11.83799 -0.12831,11.91537 -10.46971,6.31423 -14.44793,-7.82533 -32.79527,-7.56123 -40.94589,0.58939 -4.92669,4.92668 -8.08067,14.82635 -8.07101,25.33314 0.0176,19.13117 7.2421,26.06963 27.08056,26.00827 9.96867,-0.0308 16.7408,-2.44116 24.80599,-8.82891 2.6399,-2.09083 5.42987,-3.80152 6.19993,-3.80152 0.94097,0 1.40013,4.72613 1.40013,14.41138 0,13.92485 -0.10545,14.48048 -3.12354,16.458 -11.0826,7.2616 -30.48749,10.1142 -43.71191,6.42585 z m 77.92948,-88.82291 c -0.68693,-1.80405 -0.54154,-1.94945 0.70861,-0.7086 0.86509,0.85865 1.25401,1.88005 0.86428,2.26978 -0.38974,0.38973 -1.09753,-0.3128 -1.57289,-1.56118 z"
         id="path3404"
         inkscape:connector-curvature="0" />
      <path
         style="fill:#a9b5c9"
         d="m 299.24027,605.24869 c -34.88,-7.15015 -61.3924,-39.29631 -61.3924,-74.438 0,-12.67644 1.95364,-20.6983 8.22556,-33.77493 4.36351,-9.09772 7.31724,-13.22612 14.49048,-20.25317 10.10843,-9.90242 22.31567,-17.2337 33.56256,-20.15662 9.3148,-2.42078 30.62621,-2.55271 39.29754,-0.24326 12.43398,3.31156 28.81232,12.2468 32.13207,17.52973 0.74602,1.1872 -1.78399,-0.0413 -5.62225,-2.73002 -24.69357,-17.2979 -57.12254,-17.88941 -82.39713,-1.50293 -15.00861,9.73066 -27.02632,26.47227 -31.43831,43.79604 -2.42559,9.52412 -2.45272,28.32084 -0.0539,37.33488 6.79855,25.54673 28.28135,46.53169 53.7079,52.4633 12.14426,2.83306 11.71671,4.48181 -0.51214,1.97498 z m 3.16456,-24.39267 c -14.46192,-4.18877 -23.34168,-11.61811 -29.55101,-24.72413 -3.84349,-8.11244 -3.99329,-9.04596 -3.99329,-24.88433 0,-15.8021 0.15696,-16.78695 3.95181,-24.7957 7.25467,-15.31042 18.20909,-22.87833 36.46671,-25.19317 11.48034,-1.45556 24.09959,-0.0285 32.82642,3.71228 l 5.86898,2.51573 0,10.17157 c 0,6.61206 -0.49193,10.17157 -1.40574,10.17157 -0.77315,0 -5.67015,-2.1076 -10.88223,-4.68355 -8.60368,-4.25217 -10.43465,-4.68354 -19.87929,-4.68354 -11.92326,0 -17.17132,2.2265 -21.94506,9.31026 -4.21621,6.25644 -5.67207,13.25194 -5.18406,24.90983 0.33783,8.07013 1.02152,11.19081 3.04548,13.90095 5.19812,6.96044 8.5943,8.49222 20.17627,9.10012 12.40147,0.65091 18.06991,-0.96586 27.90687,-7.95968 3.34553,-2.37859 6.55191,-4.03478 7.12527,-3.68041 0.57337,0.35435 1.04249,6.82023 1.04249,14.3686 l 0,13.72431 -4.40042,2.59631 c -11.14059,6.57311 -29.95445,9.37124 -41.1692,6.12298 z"
         id="path3402"
         inkscape:connector-curvature="0" />
      <path
         style="fill:#a4b1c6"
         d="m 278.38527,597.36053 c -15.22458,-7.59238 -30.14678,-25.01827 -36.1572,-42.22379 -3.0303,-8.67458 -4.19609,-31.96828 -2.08251,-41.6107 5.95855,-27.18357 30.55601,-52.01014 56.94183,-57.47218 8.58085,-1.7763 26.13014,-1.7848 34.37472,-0.0166 3.51839,0.75456 10.23947,3.34023 14.93572,5.74594 8.98512,4.60273 8.52688,4.55933 -4.7525,-0.45007 -11.02321,-4.1583 -28.88694,-5.20534 -40.8143,-2.39225 -24.85354,5.86177 -44.36212,23.45304 -53.87842,48.58325 -2.78278,7.34862 -3.2438,10.64288 -3.32002,23.72348 -0.0971,16.67021 1.31215,22.68744 8.59757,36.70886 5.05899,9.73645 19.53932,24.17716 29.02782,28.94839 3.97254,1.99755 7.2228,3.84882 7.2228,4.11392 0,1.06696 -2.26932,0.24466 -10.09551,-3.6582 z m 24.65247,-16.63072 c -8.97482,-2.22385 -15.64713,-6.02236 -21.6978,-12.35248 -9.23719,-9.66381 -13.08228,-20.57684 -13.08228,-37.12977 0,-17.24995 4.51481,-29.24361 14.45858,-38.40946 10.03478,-9.24974 15.13372,-10.84394 34.87846,-10.90488 15.33915,-0.0473 17.76895,0.25478 23.73418,2.95123 l 6.64557,3.00398 0,9.9707 c 0,6.73067 -0.47804,9.97071 -1.47107,9.97071 -0.80909,0 -3.90493,-1.42635 -6.87966,-3.16965 -7.94215,-4.65441 -19.94304,-7.40189 -28.12883,-6.43981 -16.26586,1.91173 -23.04686,11.44251 -22.98631,32.30756 0.054,18.62016 6.83271,25.38942 25.6441,25.60844 10.22687,0.11908 18.43246,-2.73361 27.36512,-9.51353 2.36656,-1.79623 4.78745,-2.96637 5.37974,-2.60031 0.5923,0.36606 1.07691,6.9277 1.07691,14.58142 l 0,13.91585 -7.91688,3.70474 c -13.0669,6.11475 -24.77434,7.53952 -37.01983,4.50526 z"
         id="path3400"
         inkscape:connector-curvature="0" />
      <path
         style="fill:#a0aec5"
         d="m 271.39217,593.05134 c -9.47014,-6.05458 -19.12392,-17.25476 -24.52659,-28.45539 -6.36203,-13.18954 -7.68197,-18.93412 -7.72094,-33.60254 -0.0595,-22.38807 5.77845,-37.53165 20.40442,-52.92899 7.24429,-7.62636 10.97407,-10.35854 20.47697,-15.00004 6.39062,-3.12136 14.63785,-6.28808 18.32718,-7.03715 12.78621,-2.59608 36.55177,-0.96325 40.12757,2.75699 0.87001,0.90516 0.4742,1.00968 -1.26583,0.33428 -4.66336,-1.81013 -28.89248,-2.27842 -36.47196,-0.70493 -25.56074,5.30639 -49.16721,28.07485 -55.89716,53.91285 -2.44667,9.39343 -2.4816,29.41126 -0.0671,38.48399 4.16326,15.64415 13.75627,29.78111 27.67405,40.78247 6.9799,5.51731 6.44295,6.25571 -1.06056,1.45846 z m 33.60165,-11.8496 c -14.72126,-3.07138 -27.746,-13.88998 -33.16447,-27.54706 -2.41402,-6.08446 -2.86345,-9.60139 -2.86345,-22.40712 0,-19.5373 2.61143,-26.96998 13.19385,-37.55239 9.91158,-9.91158 19.51201,-12.93004 38.96549,-12.25109 11.29624,0.39425 14.61392,0.99805 19.88718,3.61935 l 6.32911,3.14615 0.37865,8.73528 c 0.20825,4.80441 -0.10257,9.21649 -0.69071,9.80464 -0.58815,0.58815 -5.08811,-0.93534 -9.99991,-3.38552 -20.71213,-10.33196 -41.02125,-5.78284 -46.54402,10.42558 -2.89121,8.48524 -2.62496,24.82973 0.51725,31.75312 3.34603,7.37247 10.64899,10.66778 23.97318,10.8174 8.10226,0.091 10.65513,-0.43679 16.54278,-3.41996 3.82911,-1.94014 8.13798,-4.62416 9.57525,-5.96448 1.43728,-1.34032 3.59263,-2.43694 4.78967,-2.43694 1.94494,0 2.13821,1.4423 1.81715,13.56044 l -0.35929,13.56044 -4.3185,2.90697 c -8.6678,5.83466 -26.74702,8.98905 -38.02921,6.63519 z"
         id="path3398"
         inkscape:connector-curvature="0" />
      <path
         style="fill:#9baac2"
         d="m 256.95907,579.24335 c -7.20493,-7.88333 -14.35006,-21.74171 -16.4568,-31.91886 -1.77722,-8.58531 -1.78145,-24.80197 -0.009,-33.41969 4.24602,-20.64103 20.47149,-41.66119 39.31828,-50.93697 10.00362,-4.92345 22.45672,-8.27676 30.18793,-8.12886 l 4.43038,0.0848 -3.79746,1.0439 c -2.08861,0.57415 -7.08206,1.69816 -11.09656,2.49781 -19.22393,3.82924 -40.34001,20.57511 -49.47778,39.23781 -13.34645,27.25839 -10.0869,58.55853 8.4695,81.32911 3.26229,4.00317 5.69723,7.27849 5.41098,7.27849 -0.28626,0 -3.42714,-3.18037 -6.97975,-7.0675 z m 48.8008,1.99436 c -14.87941,-2.623 -28.38286,-13.60032 -33.93052,-27.58303 -2.41402,-6.08446 -2.86345,-9.60139 -2.86345,-22.40712 0,-12.80574 0.44943,-16.32267 2.86345,-22.40713 4.0013,-10.08514 12.19096,-18.76324 21.96727,-23.27741 7.5114,-3.46835 8.93247,-3.68255 24.43099,-3.68255 15.0211,0 17.00747,0.27588 22.78481,3.16456 l 6.32911,3.16455 0.37865,8.73528 c 0.20825,4.80441 -0.1091,9.22303 -0.70523,9.81916 -0.60129,0.60129 -5.07425,-0.96345 -10.0461,-3.51434 -6.9644,-3.5732 -10.9293,-4.73896 -17.78656,-5.22959 -20.93218,-1.49769 -31.03462,9.08622 -31.03462,32.51368 0,12.719 3.23352,19.53011 10.85626,22.86769 12.88146,5.64008 26.44867,4.27671 38.6728,-3.88625 4.09881,-2.73708 8.11186,-4.97651 8.91788,-4.97651 1.04126,0 1.36148,3.92543 1.10621,13.56044 l -0.35929,13.56044 -4.35085,2.92877 c -8.35316,5.62291 -25.59016,8.70142 -37.23081,6.64936 z M 323.2909,455.9311 c -0.43027,-0.6962 -0.2127,-1.26582 0.4835,-1.26582 0.69621,0 1.61787,0.56962 2.04815,1.26582 0.43028,0.69621 0.2127,1.26583 -0.4835,1.26583 -0.69621,0 -1.61787,-0.56962 -2.04815,-1.26583 z"
         id="path3396"
         inkscape:connector-curvature="0" />
      <path
         style="fill:#95a5c0"
         d="m 299.01771,579.42542 c -23.55767,-7.36605 -35.77056,-34.48232 -28.81752,-63.98352 3.47486,-14.74354 10.97406,-23.97394 24.51352,-30.17251 13.12749,-6.00996 39.72721,-5.05884 50.41263,1.80261 2.50288,1.60718 2.84811,2.89029 2.84811,10.58573 0,4.81628 -0.44606,9.03255 -0.99125,9.36949 -0.54518,0.33695 -5.20844,-1.4807 -10.36281,-4.03921 -8.71727,-4.32707 -10.17254,-4.65184 -20.8442,-4.65184 -14.54385,0 -19.19535,2.45708 -24.26404,12.81712 -2.87314,5.87248 -3.43739,8.74559 -3.52963,17.97246 -0.13571,13.57501 2.42163,19.69503 9.98425,23.8936 11.40369,6.33102 27.04987,4.94994 39.71177,-3.50535 4.09782,-2.73642 8.09077,-4.9753 8.87324,-4.9753 0.96209,0 1.42267,4.275 1.42267,13.20494 l 0,13.20494 -3.82412,2.72302 c -9.97864,7.10541 -31.88025,9.89757 -45.13262,5.75382 z m -52.90674,-17.48166 c -5.62795,-12.20901 -7.48563,-22.40359 -6.69486,-36.74013 1.06519,-19.31168 9.57578,-37.55332 23.44855,-50.2597 7.74113,-7.09029 28.02341,-17.83322 33.26943,-17.62185 2.34015,0.0943 1.78567,0.54092 -2.24838,1.81108 -18.36684,5.78296 -36.04228,21.18702 -44.40383,38.69773 -6.0128,12.59198 -7.83654,20.51609 -7.83654,34.04958 0,12.36145 1.77939,21.06775 6.40303,31.32911 1.96063,4.35127 3.27863,7.91139 2.92889,7.91139 -0.34974,0 -2.53957,-4.12974 -4.86629,-9.17721 z"
         id="path3394"
         inkscape:connector-curvature="0" />
      <path
         style="fill:#92a2be"
         d="m 298.61418,579.13617 c -17.28527,-6.04756 -27.96154,-21.04931 -29.9115,-42.03011 -0.95594,-10.28548 1.09378,-23.44787 4.92693,-31.63854 4.06861,-8.69382 12.9966,-17.00767 21.88802,-20.38237 13.83181,-5.24983 35.44506,-4.79795 47.39353,0.99088 4.30054,2.08354 4.44156,2.38347 4.81199,10.23452 0.57201,12.12366 0.5477,12.13888 -10.7708,6.74442 -8.1694,-3.89358 -11.54246,-4.77982 -19.63423,-5.15869 -17.77643,-0.83233 -26.29659,6.48672 -29.17131,25.05897 -2.80854,18.14474 3.2353,29.95071 16.82467,32.86511 13.18857,2.82843 22.73789,0.79764 34.58838,-7.35572 3.24732,-2.23421 6.46905,-3.71312 7.1594,-3.28646 0.69256,0.42803 1.25519,6.37757 1.25519,13.27308 l 0,12.49732 -3.91358,2.78672 c -9.88942,7.04187 -32.93009,9.78003 -45.44669,5.40087 z m -59.01323,-37.68515 c -0.38451,-1.00201 -0.0992,-2.85328 0.63415,-4.11392 1.13294,-1.94772 1.33904,-1.674 1.37174,1.82185 0.0406,4.33964 -0.83585,5.34114 -2.00589,2.29207 z m 0.20076,-15.00071 c -1.64807,-3.74297 1.70338,-17.32489 6.99839,-28.36128 4.99681,-10.41486 15.14028,-22.90263 23.17573,-28.53197 2.17139,-1.52119 -0.32683,1.49445 -5.55161,6.70144 -13.35411,13.30862 -20.52714,27.3944 -22.63506,44.44875 -0.68871,5.57204 -1.29338,7.31936 -1.98745,5.74306 z m 35.68329,-60.5497 c 0.85865,-0.86508 1.88005,-1.25401 2.26978,-0.86428 0.38973,0.38973 -0.3128,1.09753 -1.56118,1.57288 -1.80405,0.68695 -1.94945,0.54155 -0.7086,-0.7086 z"
         id="path3392"
         inkscape:connector-curvature="0" />
      <path
         style="fill:#869aba"
         d="m 300.23526,579.4811 c -17.95258,-5.846 -27.68,-18.1104 -30.92643,-38.99226 -3.94508,-25.37571 7.05783,-48.07141 26.9738,-55.63889 13.10199,-4.97836 35.01512,-4.40177 46.62853,1.22692 4.39399,2.12964 4.43343,2.22258 4.80229,11.31721 0.44187,10.89491 0.17306,11.0165 -11.37803,5.14666 -6.30487,-3.2039 -9.926,-4.13955 -17.7806,-4.59424 -17.41598,-1.0082 -25.45962,4.29513 -29.38765,19.37586 -5.23814,20.11058 -0.0719,33.9771 14.20518,38.12756 12.95827,3.76707 26.08,0.96286 38.01492,-8.12408 2.75921,-2.1008 4.59761,-2.75139 5.42805,-1.92095 0.71398,0.71397 1.09837,6.66877 0.89098,13.80237 l -0.36477,12.54662 -8.75664,4.39417 c -7.91493,3.97178 -9.92258,4.42666 -20.88608,4.7321 -7.73076,0.21538 -14.06382,-0.29198 -17.46355,-1.39905 z"
         id="path3390"
         inkscape:connector-curvature="0" />
      <path
         style="fill:#7b92b6"
         d="m 302.06871,579.94138 c -23.19268,-5.81009 -36.20512,-28.90641 -32.54891,-57.77238 2.84234,-22.44033 15.5357,-35.95574 37.33395,-39.75174 14.13678,-2.46181 36.62589,1.30168 40.05321,6.7028 1.47347,2.32206 1.31021,15.87871 -0.20249,16.81361 -0.69849,0.43169 -5.09805,-1.10115 -9.7768,-3.40631 -7.42237,-3.6569 -9.96336,-4.23694 -19.93255,-4.55006 -10.00688,-0.31429 -12.04985,0.003 -16.45159,2.55092 -9.06286,5.24706 -13.36164,15.2979 -13.30078,31.0981 0.0648,16.82664 9.23719,25.38526 27.3447,25.51504 9.40179,0.0674 16.50835,-2.29116 24.75491,-8.21572 3.41846,-2.45592 6.75914,-4.12925 7.42374,-3.71851 0.66459,0.41074 1.20835,6.10238 1.20835,12.6481 0,13.8859 -0.87253,15.25784 -12.57751,19.77659 -7.93618,3.06379 -25.46786,4.27868 -33.32823,2.30956 z"
         id="path3388"
         inkscape:connector-curvature="0" />
      <path
         style="fill:#758db3"
         d="m 301.242,579.31836 c -12.65893,-3.55395 -21.73539,-11.4739 -27.52773,-24.02017 -4.94105,-10.70236 -5.7695,-30.52329 -1.81936,-43.52828 3.32403,-10.94366 12.04139,-21.20522 21.45403,-25.25443 12.98819,-5.58737 30.85881,-6.34511 44.49892,-1.88683 7.67322,2.508 10.13115,5.6447 10.1072,12.89838 -0.0314,9.52398 -1.10922,10.13752 -9.73345,5.54085 -12.0671,-6.4317 -29.2061,-7.7258 -38.24596,-2.88782 -8.31228,4.4486 -13.37686,17.81477 -12.49863,32.98572 0.96523,16.67368 7.29985,22.83431 24.45784,23.78605 11.03638,0.61217 17.52802,-1.07426 25.94902,-6.74117 3.60112,-2.42338 7.04903,-4.40614 7.66201,-4.40614 1.89216,0 2.72631,5.91228 2.22758,15.78862 -0.54373,10.76749 -1.07242,11.44244 -12.45725,15.90369 -9.15193,3.58628 -24.80735,4.42318 -34.07422,1.82153 z"
         id="path3386"
         inkscape:connector-curvature="0" />
      <path
         style="fill:#6d86b0"
         d="m 303.34903,579.87329 c -13.04293,-3.07399 -23.81389,-12.10393 -29.88703,-25.0561 -3.06778,-6.54264 -3.33565,-8.43544 -3.33565,-23.56963 0,-15.46787 0.21925,-16.93042 3.65244,-24.3639 4.15006,-8.98561 12.06364,-17.01645 20.40303,-20.70537 6.74177,-2.9822 22.61282,-5.12957 30.71734,-4.15608 6.86311,0.82437 17.89507,4.02967 20.22718,5.87695 1.42472,1.12852 2.44013,18.66485 1.08075,18.66485 -0.27584,0 -4.93952,-2.10759 -10.36374,-4.68354 -8.86663,-4.21075 -10.89248,-4.68101 -20.06809,-4.6584 -10.89149,0.0268 -15.62305,1.64392 -20.50085,7.00648 -5.32055,5.84933 -7.2376,11.47848 -7.81408,22.94496 -1.06532,21.18952 5.13539,28.76302 24.37618,29.7729 12.11518,0.63589 16.97545,-0.6308 26.1752,-6.82177 3.53082,-2.37607 6.95198,-4.32012 7.60257,-4.32012 0.67976,0 1.02947,5.50956 0.82217,12.95312 l -0.36074,12.95312 -5.60326,3.0878 c -10.35232,5.70488 -25.6037,7.78972 -37.12342,5.07473 z"
         id="path3384"
         inkscape:connector-curvature="0" />
      <path
         style="fill:#6782ad"
         d="m 302.89028,579.54128 c -20.7797,-5.30211 -31.93794,-20.59554 -33.10683,-45.37603 -1.24634,-26.42252 9.66772,-44.02432 30.89511,-49.82655 10.91855,-2.98444 31.63927,-2.13061 40.01741,1.64898 l 6.01265,2.71246 0,8.93194 c 0,4.91256 -0.37717,8.93193 -0.83815,8.93193 -0.46099,0 -3.27202,-1.42634 -6.24675,-3.16964 -7.94215,-4.65441 -19.94304,-7.40189 -28.12883,-6.43981 -16.67979,1.96038 -24.27994,12.48467 -24.27994,33.62162 0,18.74483 7.87868,26.60412 26.89166,26.82549 7.7281,0.09 10.89048,-0.51052 16.70352,-3.17182 3.94383,-1.80555 8.64158,-4.43988 10.43944,-5.85407 1.79785,-1.4142 3.76162,-2.57126 4.36394,-2.57126 0.60231,0 1.09511,5.68307 1.09511,12.62904 0,11.97888 -0.15843,12.73286 -3.07747,14.64549 -10.00069,6.55271 -28.73819,9.52481 -40.74087,6.46223 z"
         id="path3382"
         inkscape:connector-curvature="0" />
      <path
         style="fill:#617dab"
         d="m 304.99382,579.93592 c -14.66739,-3.06014 -26.58333,-12.89549 -31.92447,-26.35027 -2.38485,-6.00764 -2.83763,-9.57194 -2.83763,-22.33809 0,-12.71598 0.45692,-16.3401 2.80554,-22.25234 3.9936,-10.05321 10.27104,-16.78553 20.21687,-21.68184 8.25821,-4.0655 8.86635,-4.16709 24.94687,-4.16709 14.29651,0 17.27967,0.36826 22.49497,2.77693 l 6.01265,2.77692 0,9.03742 c 0,4.97058 -0.42721,8.84755 -0.94936,8.61548 -0.52216,-0.23206 -4.93671,-2.39483 -9.81013,-4.80614 -7.9686,-3.94277 -9.94409,-4.38885 -19.62025,-4.43038 -9.18383,-0.0394 -11.58368,0.41725 -16.38749,3.11838 -8.5707,4.81921 -11.9873,12.43136 -12.48081,27.80712 -0.33917,10.56706 -0.0246,12.77405 2.53164,17.7625 4.1787,8.15458 11.74284,11.72779 24.82326,11.72621 10.50028,-10e-4 17.29182,-2.24887 25.4935,-8.43682 2.39791,-1.80917 4.8188,-3.28939 5.37974,-3.28939 0.56095,0 1.0199,5.70457 1.0199,12.67683 l 0,12.67683 -4.11392,2.53312 c -9.07223,5.58617 -26.71391,8.51603 -37.60088,6.24462 z"
         id="path3380"
         inkscape:connector-curvature="0" />
      <path
         style="fill:#5876a7"
         d="m 306.21742,579.78666 c -24.21645,-3.96232 -38.59632,-25.06307 -36.35873,-53.35209 1.53937,-19.46159 8.65398,-31.55407 22.81483,-38.77763 7.96523,-4.06313 9.46525,-4.37843 22.73716,-4.77927 12.23348,-0.36948 15.35345,-0.0286 22.43718,2.45138 l 8.22785,2.88053 0.37429,8.54431 c 0.20647,4.71331 -0.15547,8.5443 -0.80724,8.5443 -0.64985,0 -5.09043,-1.85127 -9.86797,-4.11392 -7.81414,-3.70081 -9.83972,-4.11393 -20.17127,-4.11393 -10.41097,0 -11.97688,0.32562 -16.74714,3.48243 -6.56829,4.34668 -10.0089,10.95612 -11.62122,22.32444 -1.45063,10.22828 0.009,20.577 3.59183,25.45895 5.65327,7.704 19.60481,11.5303 32.37533,8.87915 3.93879,-0.81769 10.1837,-3.56291 14.6037,-6.41969 4.24721,-2.74511 7.98779,-4.9911 8.3124,-4.9911 0.32461,0 0.5902,5.64974 0.5902,12.55499 l 0,12.55498 -4.11392,2.50641 c -9.51524,5.79717 -24.17439,8.36241 -36.37728,6.36576 z"
         id="path3378"
         inkscape:connector-curvature="0" />
      <path
         style="fill:#4a6ba1"
         d="m 298.9869,577.69544 c -19.78649,-7.04969 -28.8853,-21.93201 -28.78445,-47.0808 0.0452,-11.27719 0.54133,-14.47175 3.27404,-21.08263 3.9101,-9.45917 7.51412,-14.0774 15.00429,-19.22664 12.36502,-8.50054 38.21501,-10.43842 51.48431,-3.85958 l 6.11062,3.02962 0.37686,7.91139 c 0.23996,5.03742 -0.11803,7.91139 -0.98546,7.91139 -0.74928,0 -4.90621,-1.80534 -9.23762,-4.01188 -10.51451,-5.35635 -25.31379,-6.49238 -34.07734,-2.61584 -10.64441,4.70853 -15.47712,14.68159 -15.47941,31.94417 -0.002,16.35443 5.33009,23.76588 19.16502,26.638 12.83898,2.66536 24.19239,-0.0251 35.33489,-8.37341 2.17673,-1.63087 4.31281,-2.61011 4.74683,-2.17609 1.13151,1.13151 0.93917,22.22206 -0.21928,24.04469 -0.53331,0.83908 -4.36952,3.09361 -8.52492,5.01008 -10.04026,4.63057 -28.06328,5.545 -38.18838,1.93753 z"
         id="path3376"
         inkscape:connector-curvature="0" />
      <path
         style="fill:#42649d"
         d="m 301.07642,578.25771 c -21.82142,-5.88529 -34.16952,-28.74943 -30.35151,-56.19988 3.31502,-23.83414 17.59357,-37.04402 42.24004,-39.07864 10.07691,-0.83187 21.67927,0.90473 28.57313,4.27672 4.27338,2.09024 4.56028,2.61703 4.92651,9.04581 0.21388,3.75447 -0.0722,7.28742 -0.6358,7.85099 -0.56357,0.56357 -4.70489,-0.79941 -9.20294,-3.02885 -7.58784,-3.76088 -9.10982,-4.05352 -21.08214,-4.05352 -12.47891,0 -13.0641,0.1272 -17.76822,3.86213 -2.67538,2.12416 -6.28821,6.68113 -8.0285,10.12658 -2.71323,5.37168 -3.16423,7.97824 -3.16456,18.28977 -3.1e-4,9.72305 0.50459,12.99469 2.63723,17.08861 3.74823,7.19525 11.12974,11.0078 22.75703,11.754 10.59332,0.67983 17.72496,-1.26615 26.60599,-7.25989 3.14667,-2.12366 6.26228,-3.8612 6.92358,-3.8612 0.66948,0 1.20236,5.00834 1.20236,11.30053 0,10.7038 -0.17632,11.43923 -3.33916,13.92712 -8.36385,6.57901 -29.14108,9.50683 -42.29304,5.95972 z"
         id="path3374"
         inkscape:connector-curvature="0" />
      <path
         style="fill:#3c609b"
         d="m 300.66304,577.99172 c -12.45495,-3.9896 -20.14232,-10.77285 -25.71829,-22.69353 -3.32122,-7.10033 -3.55258,-8.66659 -3.55258,-24.05063 0,-15.47621 0.21789,-16.9275 3.66058,-24.38203 6.27646,-13.59054 16.25734,-20.46894 33.60763,-23.16092 13.7557,-2.13428 32.49013,1.00976 36.46596,6.11976 1.61451,2.07507 2.22022,13.14812 0.79706,14.57128 -0.43187,0.43187 -4.13369,-0.90509 -8.22628,-2.97102 -11.53623,-5.82347 -29.24633,-7.04615 -37.56616,-2.59351 -9.26008,4.95584 -14.82294,18.7327 -13.91274,34.45597 0.9798,16.92537 8.23727,23.961 25.71664,24.93056 11.03541,0.61212 17.52801,-1.07424 25.94599,-6.73913 3.59946,-2.42226 7.05822,-4.08659 7.68612,-3.69853 0.62791,0.38807 1.14165,5.25613 1.14165,10.8179 0,9.02991 -0.32284,10.41071 -3.01611,12.89998 -7.64622,7.06706 -30.48144,10.51327 -43.02947,6.49385 z"
         id="path3372"
         inkscape:connector-curvature="0" />
      <path
         style="fill:#355b98"
         d="m 302.3154,578.25088 c -7.67353,-2.069 -16.54673,-7.37825 -20.86556,-12.48483 -6.69737,-7.91897 -9.77979,-16.80285 -10.41628,-30.02096 -0.71677,-14.88508 1.09888,-24.21555 6.42593,-33.02226 8.24839,-13.63627 20.07995,-19.22126 40.76812,-19.24425 10.006,-0.0111 14.18326,0.5684 19.93671,2.76587 l 7.27848,2.77994 0,8.07451 0,8.0745 -9.73083,-4.62115 c -8.72502,-4.14349 -10.78574,-4.61855 -19.93671,-4.596 -11.1376,0.0274 -16.35279,1.90285 -21.8819,7.86886 -4.88519,5.2712 -6.87864,11.37234 -7.61303,23.30031 -1.39172,22.60468 6.78542,31.31379 29.41564,31.32927 7.2857,0.005 10.21081,-0.66247 16.45569,-3.75484 4.17722,-2.06849 8.87658,-4.70081 10.44304,-5.8496 l 2.8481,-2.0887 0,12.15839 0,12.15838 -6.01266,3.02844 c -11.22075,5.65164 -25.57809,7.25474 -37.11474,4.14412 z"
         id="path3370"
         inkscape:connector-curvature="0" />
      <path
         style="fill:#2b5294"
         d="m 305.4513,578.67709 c -23.53724,-4.6665 -35.92795,-23.13388 -34.37083,-51.227 1.1197,-20.20129 7.71008,-31.7493 22.18851,-38.87987 8.18175,-4.02948 8.93332,-4.1581 24.29571,-4.1581 12.33939,0 17.18536,0.51414 21.86545,2.31988 l 6.01266,2.31988 0,7.49024 c 0,7.99315 -1.04761,9.00971 -5.67819,5.50994 -3.64659,-2.75609 -17.81805,-6.88045 -23.64145,-6.88045 -19.89256,0 -30.17403,11.95331 -30.17403,35.08053 0,18.25035 6.3141,25.87875 23.42592,28.30208 10.08215,1.42781 20.1931,-1.01819 29.42218,-7.11768 l 6.64557,-4.39206 0,12.10828 0,12.10827 -6.73818,3.08484 c -11.19036,5.12311 -22.0951,6.54346 -33.25332,4.33122 z"
         id="path3368"
         inkscape:connector-curvature="0" />
      <path
         style="fill:#234c90"
         d="m 306.47694,578.55819 c -21.899,-3.59989 -35.71768,-21.90373 -35.71768,-47.31063 0,-23.06173 10.65746,-39.41759 29.39242,-45.10816 11.53109,-3.50246 30.1892,-2.97019 39.27846,1.12051 l 6.01266,2.70605 0,7.03321 c 0,3.86826 -0.22086,7.0332 -0.49079,7.0332 -0.26994,0 -4.3137,-1.78896 -8.98614,-3.97545 -5.9048,-2.76319 -11.06259,-4.15716 -16.91427,-4.57132 -19.97937,-1.41409 -30.19669,7.0457 -33.08226,27.39161 -2.30222,16.23277 1.97722,28.2261 11.73639,32.89173 12.29341,5.8772 27.76696,4.50782 40.50255,-3.58439 3.33114,-2.11661 6.32165,-3.84839 6.64557,-3.84839 0.32392,0 0.58895,4.80299 0.58895,10.6733 0,10.2014 -0.15391,10.78242 -3.48101,13.14137 -7.86292,5.57489 -23.43939,8.38746 -35.48485,6.40736 z"
         id="path3366"
         inkscape:connector-curvature="0" />
      <path
         style="fill:#18448c"
         d="m 299.02819,576.45382 c -18.24057,-6.52945 -27.4137,-21.41634 -27.46558,-44.57335 -0.0465,-20.73631 5.77235,-33.24833 19.21528,-41.31805 12.08795,-7.25633 33.26873,-8.75589 47.70289,-3.37727 l 6.32911,2.35842 0.38344,7.37221 c 0.21089,4.05472 -0.0739,7.14498 -0.63291,6.86725 -13.95732,-6.93458 -16.72748,-7.83108 -25.8251,-8.35773 -10.43718,-0.6042 -17.12628,0.92897 -23.01267,5.27459 -11.23366,8.29324 -14.56146,36.845 -5.73857,49.2356 8.34222,11.71557 34.16325,12.89419 48.88295,2.2313 2.90842,-2.10684 5.59995,-3.83063 5.98118,-3.83063 0.38123,0 0.52857,4.98418 0.32742,11.07595 l -0.36574,11.07595 -7.59494,3.68329 c -10.05125,4.87451 -27.956,5.9447 -38.18676,2.28247 z"
         id="path3364"
         inkscape:connector-curvature="0" />
      <path
         style="fill:#113e89"
         d="m 303.33453,577.33863 c -11.68753,-2.75355 -21.4454,-10.85199 -27.21022,-22.58282 -3.23773,-6.58845 -3.46582,-8.13546 -3.46606,-23.50825 -2.3e-4,-14.49122 0.34721,-17.21127 2.91031,-22.78481 3.66764,-7.97538 10.53752,-15.15033 18.31762,-19.13103 11.39558,-5.83058 33.26787,-6.46522 45.57629,-1.32243 4.5742,1.91122 4.71451,2.16326 4.71451,8.46904 0,3.57455 -0.42722,6.28024 -0.94937,6.01263 -17.57105,-9.00516 -31.93218,-10.58207 -43.35443,-4.76047 -9.99525,5.09429 -13.98901,13.13327 -14.89993,29.99186 -0.57831,10.70304 -0.35774,12.2217 2.67557,18.42156 4.72609,9.6598 10.52325,12.69322 25.5155,13.35128 11.24235,0.49346 11.52162,0.43312 21.20253,-4.5813 l 9.81013,-5.08134 0,10.48833 0,10.48834 -6.12686,2.6357 c -11.80248,5.07729 -23.92209,6.43662 -34.71559,3.89371 z"
         id="path3362"
         inkscape:connector-curvature="0" />
      <path
         style="fill:#0b3a87"
         d="m 304.90134,576.99624 c -13.96394,-3.00846 -24.09586,-11.58865 -29.359,-24.86261 -2.24748,-5.66828 -2.76045,-9.54952 -2.76045,-20.88607 0,-11.33656 0.51297,-15.2178 2.76045,-20.88608 3.9804,-10.03881 9.23179,-15.71835 18.96612,-20.51248 8.094,-3.98627 9.11544,-4.17106 23.0562,-4.17106 11.11211,0 16.01933,0.55264 20.59966,2.31988 l 6.01266,2.31988 0,6.32766 0,6.32766 -4.11393,-2.52292 c -7.12036,-4.36667 -18.28566,-6.91224 -27.43675,-6.2553 -19.508,1.40045 -28.10476,12.50547 -28.20928,36.43979 -0.0903,20.68223 8.65771,29.29382 30.01312,29.54503 8.55832,0.10067 11.29747,-0.42427 17.68719,-3.38965 4.15833,-1.92983 8.57288,-4.42488 9.81012,-5.54457 2.13813,-1.93498 2.24953,-1.52114 2.24953,8.35701 l 0,10.3928 -6.87245,3.14631 c -6.19553,2.83641 -18.59338,5.71655 -23.5073,5.46097 -1.0443,-0.0543 -5.04745,-0.77713 -8.89589,-1.60625 z"
         id="path3360"
         inkscape:connector-curvature="0" />
    </g>
  </g>
</svg>
